<svg width="32" height="33" viewBox="0 0 32 33" fill="none" xmlns="http://www.w3.org/2000/svg">
<g id="Crop">
<path id="Vector" d="M1 31.5L22 10.5M22 10.5H25C26.5913 10.5 28.1174 9.86786 29.2426 8.74264C30.3679 7.61742 31 6.0913 31 4.5V1.5H28C26.4087 1.5 24.8826 2.13214 23.7574 3.25736C22.6321 4.38258 22 5.9087 22 7.5V10.5ZM3.205 17.295L5.5 15L7.795 17.295C8.7751 18.279 9.32539 19.6112 9.32539 21C9.32539 22.3888 8.7751 23.721 7.795 24.705L5.5 27L3.205 24.705C2.2249 23.721 1.67461 22.3888 1.67461 21C1.67461 19.6112 2.2249 18.279 3.205 17.295ZM9.205 11.295L11.5 9L13.795 11.295C14.7751 12.279 15.3254 13.6112 15.3254 15C15.3254 16.3888 14.7751 17.721 13.795 18.705L11.5 21L9.205 18.705C8.2249 17.721 7.67461 16.3888 7.67461 15C7.67461 13.6112 8.2249 12.279 9.205 11.295ZM15.205 5.295L17.5 3L19.795 5.295C20.7751 6.27897 21.3254 7.61119 21.3254 9C21.3254 10.3888 20.7751 11.721 19.795 12.705L17.5 15L15.205 12.705C14.2249 11.721 13.6746 10.3888 13.6746 9C13.6746 7.61119 14.2249 6.27897 15.205 5.295Z" stroke="#E4A951" stroke-width="2" stroke-linecap="round" stroke-linejoin="round"/>
<path id="Vector_2" d="M15.205 24.705L17.5 27L15.205 29.295C14.221 30.2751 12.8888 30.8254 11.5 30.8254C10.1112 30.8254 8.77897 30.2751 7.795 29.295L5.5 27L7.795 24.705C8.77897 23.7249 10.1112 23.1746 11.5 23.1746C12.8888 23.1746 14.221 23.7249 15.205 24.705ZM21.205 18.705L23.5 21L21.205 23.295C20.221 24.2751 18.8888 24.8254 17.5 24.8254C16.1112 24.8254 14.779 24.2751 13.795 23.295L11.5 21L13.795 18.705C14.779 17.7249 16.1112 17.1746 17.5 17.1746C18.8888 17.1746 20.221 17.7249 21.205 18.705ZM27.205 12.705L29.5 15L27.205 17.295C26.221 18.2751 24.8888 18.8254 23.5 18.8254C22.1112 18.8254 20.779 18.2751 19.795 17.295L17.5 15L19.795 12.705C20.779 11.7249 22.1112 11.1746 23.5 11.1746C24.8888 11.1746 26.221 11.7249 27.205 12.705Z" stroke="#E4A951" stroke-width="2" stroke-linecap="round" stroke-linejoin="round"/>
</g>
</svg>
