<svg width="34" height="40" viewBox="0 0 34 40" fill="none" xmlns="http://www.w3.org/2000/svg">
<g id="Fertilizer">
<path id="Fertilizer_2" d="M15.6263 0.000517282C7.99965 -0.0122363 0.917991 0.210527 1.00727 0.703667L2.8846 3.77644C7.93163 3.34282 12.744 3.18552 17.5649 3.21783C22.0882 3.24759 26.6199 3.44484 31.3473 3.73563L34 0.906024C33.6174 0.332962 24.2733 0.0149714 15.6263 0.000517282ZM15.9494 4.74571C11.7747 4.75592 7.59154 4.91491 3.22214 5.28307C1.36947 15.7972 0.343228 28.6273 2.75451 36.543L0.507324 39.1788C11.4006 39.995 22.4878 40.2586 33.0393 39.7144L30.497 36.6876C32.138 27.658 31.6279 15.3295 30.514 5.21845C26.1608 4.95827 21.9861 4.78483 17.8199 4.75167L29.2302 15.2275H23.168C23.491 17.1915 24.9025 19.8443 26.3904 22.3015C27.2321 23.6959 28.0909 25.0478 28.7455 26.2381C29.4002 27.4285 29.9019 28.4232 29.9019 29.4265C29.9019 31.8072 28.2949 33.7627 25.9312 35.0296C23.5676 36.305 20.3962 36.9937 16.8932 36.9937C13.3902 36.9937 10.2188 36.305 7.85511 35.0296C5.49144 33.7627 3.88448 31.8072 3.88448 29.4265C3.88448 28.4062 4.41163 27.4114 5.10033 26.2041C5.78902 24.9968 6.68178 23.6364 7.54902 22.225C9.07946 19.7508 10.4739 17.081 10.6694 15.2275H3.96951L15.9494 4.74571ZM16.8847 5.96751L8.05067 13.6971H12.1573L12.2168 14.3943C12.4464 17.1065 10.6099 20.1759 8.84989 23.0327C7.96564 24.4611 7.08139 25.813 6.43521 26.9608C5.78052 28.1001 5.41492 29.0864 5.41492 29.4265C5.41492 30.6679 6.01009 31.7647 7.1239 32.7085C11.7322 32.1303 14.0959 31.8072 16.1705 31.7392C16.2215 31.0165 16.315 30.2938 16.434 29.5966C13.3222 29.7921 10.4568 28.9589 7.63405 27.9556C8.90091 25.5069 11.2306 23.7979 13.3307 23.8064C13.7218 23.8064 14.1044 23.8574 14.47 23.985C15.4223 24.2911 16.281 26 16.8507 27.437C17.0377 26.5442 17.2163 25.779 17.2928 25.2178V25.2093C17.3693 24.6822 17.1567 23.1687 16.8847 21.9189C16.6891 21.0176 16.4851 20.2269 16.383 19.8528C15.8474 19.8528 15.3712 19.7508 15.0567 19.4277C12.897 17.183 14.2999 13.0339 16.1535 10.7212C17.4713 12.9148 19.1888 15.2785 20.9148 16.911C20.5407 18.1693 19.8605 19.1811 18.5426 19.6317C18.3641 19.6487 18.143 19.6743 17.922 19.7083C18.041 20.1504 18.2111 20.8136 18.3811 21.5873C18.4916 22.0719 18.5937 22.5736 18.6787 23.0752C19.1293 22.6586 19.648 22.276 20.0731 22.259H20.1666C22.5473 22.48 25.2425 24.7757 25.9227 28.1257C23.5846 27.0543 20.9063 27.675 18.7892 25.5579C18.5511 27.1394 17.888 29.52 17.7094 31.7477C19.7585 31.8157 22.1222 32.1388 26.6624 32.7085C27.7763 31.7647 28.3714 30.6679 28.3714 29.4265C28.3714 29.0694 28.0228 28.1001 27.4022 26.9778C26.7815 25.847 25.9397 24.5121 25.081 23.0922C23.372 20.2694 21.5695 17.2 21.5695 14.4623V13.6971H25.3021L16.8847 5.96751ZM16.8932 33.2441C14.9971 33.2441 12.9906 33.4992 9.18149 33.9838C11.1966 34.9106 13.9003 35.4632 16.8932 35.4632C19.886 35.4632 22.5898 34.9106 24.6049 33.9838C20.7958 33.4992 18.7892 33.2441 16.8932 33.2441Z" fill="#F7C35F"/>
</g>
</svg>
